<svg width="24" height="24" viewBox="0 0 24 24" fill="none" xmlns="http://www.w3.org/2000/svg">
<path fill-rule="evenodd" clip-rule="evenodd" d="M3 0C1.34315 0 0 1.34315 0 3V21C0 22.6569 1.34315 24 3 24H21C22.6569 24 24 22.6569 24 21V3C24 1.34315 22.6569 0 21 0H3ZM17.9722 10.6679L17.9721 10.6679C18.1081 11.8711 17.7428 13.1121 16.9672 14.0779C16.197 15.0368 15.1697 15.778 14.2633 16.4319C13.8491 16.7307 13.2987 17.1177 12.7145 17.4608L12.6818 17.48L12.6818 17.4801C12.4369 17.6244 12.0668 17.8425 11.7417 17.8425H11.7416C11.4393 17.8424 11.2328 17.6528 11.175 17.3221C11.1248 17.0344 11.1888 16.7734 11.2506 16.5211C11.2584 16.4894 11.2662 16.4577 11.2737 16.4259C11.2819 16.3915 11.2925 16.329 11.2722 16.2972C11.2612 16.2802 11.2185 16.237 11.0598 16.2056L10.9924 16.1923C10.4161 16.0783 9.87185 15.9707 9.3214 15.7424C8.42616 15.371 7.64945 14.8021 7.07528 14.097C6.46526 13.3479 6.09886 12.4576 6.01566 11.5223C5.85492 9.71494 6.94246 7.91402 8.78648 6.93424C9.74275 6.42612 10.8519 6.15753 11.9939 6.15753C12.8398 6.15753 13.6613 6.30156 14.4356 6.58557C15.3393 6.91704 16.1446 7.4471 16.7645 8.11843C17.3873 8.79299 17.7894 9.58302 17.9357 10.4155L17.9417 10.4148L17.9446 10.4388L17.9542 10.5187L17.9681 10.6343L17.9683 10.6356L17.9685 10.6371L17.9722 10.6679ZM8.7017 12.4976H9.73697C9.89342 12.4976 10.0202 12.3708 10.0202 12.2143C10.0202 12.0579 9.89338 11.9311 9.73693 11.9311H8.98498V10.0414C8.98498 9.88491 8.85815 9.75808 8.7017 9.75808C8.54525 9.75808 8.41843 9.88491 8.41843 10.0414V12.2143C8.41843 12.3708 8.54525 12.4976 8.7017 12.4976ZM10.5337 12.4899C10.6901 12.4899 10.8169 12.3631 10.8169 12.2067V10.0337C10.8169 9.87722 10.6901 9.75039 10.5337 9.75039C10.3772 9.75039 10.2504 9.87722 10.2504 10.0337V12.2067C10.2504 12.3631 10.3772 12.4899 10.5337 12.4899ZM13.1818 12.4761C13.2985 12.4382 13.3775 12.3294 13.3775 12.2067V10.0337C13.3775 9.87722 13.2507 9.75039 13.0943 9.75039C12.9378 9.75039 12.811 9.87722 12.811 10.0337V11.3344L11.7909 9.92943C11.7188 9.83008 11.5909 9.78855 11.4741 9.82643C11.3574 9.86435 11.2784 9.97313 11.2784 10.0959V12.2067C11.2784 12.3632 11.4052 12.49 11.5616 12.49C11.7181 12.49 11.8449 12.3632 11.8449 12.2067V10.9682L12.865 12.3731C12.9194 12.4479 13.0053 12.49 13.0943 12.49C13.1234 12.49 13.1529 12.4854 13.1818 12.4761ZM14.0397 12.4453H15.4417C15.5982 12.4453 15.725 12.3185 15.725 12.1621C15.725 12.0056 15.5982 11.8788 15.4417 11.8788H14.323V11.3589H15.1955C15.352 11.3589 15.4788 11.2321 15.4788 11.0756C15.4788 10.9192 15.352 10.7923 15.1955 10.7923H14.323V10.2724H15.3982C15.5547 10.2724 15.6815 10.1455 15.6815 9.98907C15.6815 9.83262 15.5547 9.7058 15.3982 9.7058H14.0397C13.8832 9.7058 13.7564 9.83262 13.7564 9.98907V11.0756V12.1621C13.7564 12.3185 13.8832 12.4453 14.0397 12.4453Z" fill="#6c6c6c"/>
</svg>
